<svg width="36" height="36" viewBox="0 0 36 36" fill="none" xmlns="http://www.w3.org/2000/svg">
<g clip-path="url(#clip0_28_142)">
<path d="M6 18C6 11.385 11.385 6 18 6C24.615 6 30 11.385 30 18C30 24.615 24.615 30 18 30C11.385 30 6 24.615 6 18ZM3 18C3 26.28 9.72 33 18 33C26.28 33 33 26.28 33 18C33 9.72 26.28 3 18 3C9.72 3 3 9.72 3 18ZM18 16.5H12L12 19.5H18V24L24 18L18 12V16.5Z" fill="#CEC5AF"/>
</g>
<defs>
<clipPath id="clip0_28_142">
<rect width="36" height="36" fill="white" transform="matrix(0 -1 1 0 0 36)"/>
</clipPath>
</defs>
</svg>
